<svg xmlns="http://www.w3.org/2000/svg" viewBox="0 0 256 256" role="img" aria-labelledby="title desc">
  <title>LearnLedger</title>
  <desc>Transparent modern LearnLedger favicon</desc>
  <defs>
    <linearGradient id="plate" x1="48" y1="44" x2="170" y2="174" gradientUnits="userSpaceOnUse">
      <stop offset="0" stop-color="#8b5cf6"/>
      <stop offset="1" stop-color="#22d3ee"/>
    </linearGradient>
    <linearGradient id="paper" x1="88" y1="48" x2="196" y2="204" gradientUnits="userSpaceOnUse">
      <stop offset="0" stop-color="#fffdf7"/>
      <stop offset="1" stop-color="#f3e8ff"/>
    </linearGradient>
    <linearGradient id="bookmark" x1="164" y1="52" x2="196" y2="122" gradientUnits="userSpaceOnUse">
      <stop offset="0" stop-color="#38bdf8"/>
      <stop offset="1" stop-color="#7c3aed"/>
    </linearGradient>
    <linearGradient id="ink" x1="108" y1="104" x2="176" y2="152" gradientUnits="userSpaceOnUse">
      <stop offset="0" stop-color="#7c3aed"/>
      <stop offset="1" stop-color="#06b6d4"/>
    </linearGradient>
  </defs>

  <ellipse cx="136" cy="208" rx="54" ry="16" fill="#12082b" fill-opacity="0.12"/>
  <circle cx="196" cy="58" r="10" fill="#67e8f9" fill-opacity="0.9"/>
  <circle cx="196" cy="58" r="18" fill="#67e8f9" fill-opacity="0.15"/>

  <g>
    <rect
      x="58"
      y="56"
      width="108"
      height="136"
      rx="28"
      fill="url(#plate)"
      fill-opacity="0.2"
      stroke="url(#plate)"
      stroke-width="10"
      transform="rotate(-10 112 124)"
    />

    <rect
      x="86"
      y="44"
      width="112"
      height="156"
      rx="30"
      fill="url(#paper)"
      stroke="#271343"
      stroke-opacity="0.12"
      stroke-width="5"
    />

    <path
      d="M164 44h18c8.837 0 16 7.163 16 16v52l-16-10-16 10V44Z"
      fill="url(#bookmark)"
    />

    <path d="M110 94h62" stroke="url(#ink)" stroke-width="12" stroke-linecap="round"/>
    <path d="M110 124h52" stroke="url(#ink)" stroke-opacity="0.92" stroke-width="12" stroke-linecap="round"/>
    <path d="M110 154h40" stroke="url(#ink)" stroke-opacity="0.82" stroke-width="12" stroke-linecap="round"/>

    <path
      d="M106 184c18-16 34-24 48-24 11 0 22 4 34 11"
      fill="none"
      stroke="#7c3aed"
      stroke-opacity="0.26"
      stroke-width="10"
      stroke-linecap="round"
    />
  </g>
</svg>
